HIERARCHY
ROOT hip
{
  OFFSET 0 0 0
  CHANNELS 6 Xposition Yposition Zposition Zrotation Yrotation Xrotation
  JOINT abdomen
  {
    OFFSET 0 20.6881 -0.73152
    CHANNELS 3 Zrotation Xrotation Yrotation
    JOINT chest
    {
      OFFSET 0 11.7043 -0.48768
      CHANNELS 3 Zrotation Xrotation Yrotation
      JOINT neck
      {
        OFFSET 0 22.1894 -2.19456
        CHANNELS 3 Zrotation Xrotation Yrotation
        JOINT head
        {
          OFFSET -0.24384 7.07133 1.2192
          CHANNELS 3 Zrotation Xrotation Yrotation
          JOINT leftEye
          {
            OFFSET 4.14528 8.04674 8.04672
            CHANNELS 3 Zrotation Xrotation Yrotation
            End Site
            {
              OFFSET 1 0 0
            }
          }
          JOINT rightEye
          {
            OFFSET -3.6576 8.04674 8.04672
            CHANNELS 3 Zrotation Xrotation Yrotation
            End Site
            {
              OFFSET 1 0 0
            }
          }
        }
      }
      JOINT rCollar
      {
        OFFSET -2.68224 19.2634 -4.8768
        CHANNELS 3 Zrotation Xrotation Yrotation
        JOINT rShldr
        {
          OFFSET -8.77824 -1.95073 1.46304
          CHANNELS 3 Zrotation Xrotation Yrotation
          JOINT rForeArm
          {
            OFFSET -28.1742 -1.7115 0.48768
            CHANNELS 3 Zrotation Xrotation Yrotation
            JOINT rHand
            {
              OFFSET -22.5879 0.773209 7.07136
              CHANNELS 3 Zrotation Xrotation Yrotation
              JOINT rThumb1
              {
                OFFSET -1.2192 -0.487915 3.41376
                CHANNELS 3 Zrotation Xrotation Yrotation
                JOINT rThumb2
                {
                  OFFSET -3.37035 -0.52449 3.41376
                  CHANNELS 3 Zrotation Xrotation Yrotation
                  End Site
                  {
                    OFFSET -1.78271 -1.18214 1.43049
                  }
                }
              }
              JOINT rIndex1
              {
                OFFSET -7.75947 0.938293 5.60832
                CHANNELS 3 Zrotation Xrotation Yrotation
                JOINT rIndex2
                {
                  OFFSET -2.54057 -0.884171 1.56538
                  CHANNELS 3 Zrotation Xrotation Yrotation
                  End Site
                  {
                    OFFSET -1.62519 -0.234802 1.16502
                  }
                }
              }
              JOINT rMid1
              {
                OFFSET -8.24714 1.18213 3.41376
                CHANNELS 3 Zrotation Xrotation Yrotation
                JOINT rMid2
                {
                  OFFSET -3.10165 -0.590103 1.0647
                  CHANNELS 3 Zrotation Xrotation Yrotation
                  End Site
                  {
                    OFFSET -2.48547 -0.328903 0.83742
                  }
                }
              }
              JOINT rRing1
              {
                OFFSET -8.82822 0.546677 1.51678
                CHANNELS 3 Zrotation Xrotation Yrotation
                JOINT rRing2
                {
                  OFFSET -2.60934 -0.819778 -0.0198488
                  CHANNELS 3 Zrotation Xrotation Yrotation
                  End Site
                  {
                    OFFSET -2.33842 -0.294052 0.168128
                  }
                }
              }
              JOINT rPinky1
              {
                OFFSET -8.27202 -0.0477905 -0.4584
                CHANNELS 3 Zrotation Xrotation Yrotation
                JOINT rPinky2
                {
                  OFFSET -1.82734 -0.647385 -0.700984
                  CHANNELS 3 Zrotation Xrotation Yrotation
                  End Site
                  {
                    OFFSET -1.69225 -0.51767 -0.607171
                  }
                }
              }
            }
          }
        }
      }
      JOINT lCollar
      {
        OFFSET 2.68224 19.2634 -4.8768
        CHANNELS 3 Zrotation Xrotation Yrotation
        JOINT lShldr
        {
          OFFSET 8.77824 -1.95073 1.46304
          CHANNELS 3 Zrotation Xrotation Yrotation
          JOINT lForeArm
          {
            OFFSET 28.1742 -1.7115 0.48768
            CHANNELS 3 Zrotation Xrotation Yrotation
            JOINT lHand
            {
              OFFSET 22.5879 0.773209 7.07136
              CHANNELS 3 Zrotation Xrotation Yrotation
              JOINT lThumb1
              {
                OFFSET 1.2192 -0.487915 3.41376
                CHANNELS 3 Zrotation Xrotation Yrotation
                JOINT lThumb2
                {
                  OFFSET 3.37035 -0.52449 3.41376
                  CHANNELS 3 Zrotation Xrotation Yrotation
                  End Site
                  {
                    OFFSET 1.78271 -1.18214 1.43049
                  }
                }
              }
              JOINT lIndex1
              {
                OFFSET 7.75947 0.938293 5.60832
                CHANNELS 3 Zrotation Xrotation Yrotation
                JOINT lIndex2
                {
                  OFFSET 2.54057 -0.884171 1.56538
                  CHANNELS 3 Zrotation Xrotation Yrotation
                  End Site
                  {
                    OFFSET 1.62519 -0.234802 1.16502
                  }
                }
              }
              JOINT lMid1
              {
                OFFSET 8.24714 1.18213 3.41376
                CHANNELS 3 Zrotation Xrotation Yrotation
                JOINT lMid2
                {
                  OFFSET 3.10165 -0.590103 1.0647
                  CHANNELS 3 Zrotation Xrotation Yrotation
                  End Site
                  {
                    OFFSET 2.48547 -0.328903 0.83742
                  }
                }
              }
              JOINT lRing1
              {
                OFFSET 8.82822 0.546677 1.51678
                CHANNELS 3 Zrotation Xrotation Yrotation
                JOINT lRing2
                {
                  OFFSET 2.60934 -0.819778 -0.0198488
                  CHANNELS 3 Zrotation Xrotation Yrotation
                  End Site
                  {
                    OFFSET 2.33842 -0.294052 0.168128
                  }
                }
              }
              JOINT lPinky1
              {
                OFFSET 8.27202 -0.0477905 -0.4584
                CHANNELS 3 Zrotation Xrotation Yrotation
                JOINT lPinky2
                {
                  OFFSET 1.82734 -0.647385 -0.700984
                  CHANNELS 3 Zrotation Xrotation Yrotation
                  End Site
                  {
                    OFFSET 1.69225 -0.51767 -0.607171
                  }
                }
              }
            }
          }
        }
      }
    }
  }
  JOINT rButtock
  {
    OFFSET -8.77824 4.35084 1.2192
    CHANNELS 3 Zrotation Xrotation Yrotation
    JOINT rThigh
    {
      OFFSET 0 -1.70687 -2.19456
      CHANNELS 3 Zrotation Xrotation Yrotation
      JOINT rShin
      {
        OFFSET 0 -36.8199 0.73152
        CHANNELS 3 Zrotation Xrotation Yrotation
        JOINT rFoot
        {
          OFFSET 0.73152 -45.1104 -5.12064
          CHANNELS 3 Zrotation Xrotation Yrotation
          End Site
          {
            OFFSET -1.1221 -3.69964 12.103
          }
        }
      }
    }
  }
  JOINT lButtock
  {
    OFFSET 8.77824 4.35084 1.2192
    CHANNELS 3 Zrotation Xrotation Yrotation
    JOINT lThigh
    {
      OFFSET 0 -1.70687 -2.19456
      CHANNELS 3 Zrotation Xrotation Yrotation
      JOINT lShin
      {
        OFFSET 0 -36.8199 0.73152
        CHANNELS 3 Zrotation Xrotation Yrotation
        JOINT lFoot
        {
          OFFSET -0.73152 -45.1104 -5.12064
          CHANNELS 3 Zrotation Xrotation Yrotation
          End Site
          {
            OFFSET 1.1221 -3.69964 12.103
          }
        }
      }
    }
  }
}
MOTION
Frames:	9
Frame Time:	0.03333
0.0 0.0 0.0 0.0 0.0 0.0 0.0 0.0 0.0 0.0 0.0 0.0 0.0 0.0 0.0 0.0 0.0 0.0 0.0 0.0 0.0 0.0 0.0 0.0 0.0 0.0 0.0 0.0 0.0 0.0 0.0 0.0 0.0 0.0 0.0 0.0 0.0 0.0 0.0 0.0 0.0 0.0 0.0 0.0 0.0 0.0 0.0 0.0 0.0 0.0 0.0 0.0 0.0 0.0 0.0 0.0 0.0 0.0 0.0 0.0 0.0 0.0 0.0 0.0 0.0 0.0 0.0 0.0 0.0 0.0 0.0 0.0 0.0 0.0 0.0 0.0 0.0 0.0 0.0 0.0 0.0 0.0 0.0 0.0 0.0 0.0 0.0 0.0 0.0 0.0 0.0 0.0 0.0 0.0 0.0 0.0 0.0 0.0 0.0 0.0 0.0 0.0 0.0 0.0 0.0 0.0 0.0 0.0 0.0 0.0 0.0 0.0 0.0 0.0 0.0 0.0 0.0 0.0 0.0 0.0 0.0 0.0 0.0 0.0 0.0 0.0 0.0 0.0 0.0 0.0 0.0 0.0
-0.0838 69.8468 -0.0829 -178.718893 78.015446 179.695965 -1.16207 6.711616 0.087738 9.041323 2.837437 -37.782905 -13.023564 -9.737896 -94.455142 37.218725 44.39025 121.599369 46.928449 -1.370901 -3.157599 138.765521 -11.716256 30.509186 68.649893 24.090885 4.184769 10.086608 1.095297 16.794052 16.189431 82.610476 154.481283 -154.767463 73.727104 133.833668 18.665667 -8.490225 -9.781143 -103.023757 68.125757 26.452762 146.249047 -41.385931 165.893336 -178.399578 18.081316 167.234716 149.867163 17.115151 -117.732138 89.785677 -10.794636 -110.551348 -76.490944 -70.73074 102.591343 -109.51247 2.105528 -21.545474 49.314197 -50.658572 -136.945944 -33.488222 25.551418 117.362405 -92.430999 -52.828349 9.094754 172.271353 -8.904167 -161.320808 -78.120209 -85.935576 116.862262 -31.972502 -34.072077 -12.288846 2.920413 51.545809 31.091233 -163.159941 65.300636 -26.841901 -141.938131 -56.642986 113.034757 71.673608 20.034526 171.052083 109.924062 -47.185577 48.596803 -175.179846 -22.448858 36.616966 48.237565 23.534834 168.166627 -127.946417 -9.963241 174.109 90.012281 -71.780395 -105.696663 -153.826364 10.562939 -96.485859 -36.450733 -47.974966 -54.094714 -14.135224 55.181514 -162.946268 5.686693 -7.968667 50.852814 -70.179367 -9.782515 110.65355 -23.717849 -52.64586 -29.574222 -0.758218 56.161863 -177.23191 7.116144 -3.01739 82.730527 -70.78974 -24.258963 96.674147
-0.5587 71.1063 -1.637 -11.642814 73.220606 4.296136 -0.076321 -33.717302 -0.548257 2.22992 14.92079 18.34911 7.084257 -2.570664 -77.2201 3.228413 3.93417 99.309728 -137.497299 -18.908161 -46.358563 35.519259 -2.435629 -7.594506 -138.026818 -23.007098 -174.351402 -105.640636 -65.827752 -109.013225 89.188739 88.976157 127.156018 158.016484 -21.577387 135.182354 -153.782843 59.702442 95.593977 75.424531 -60.526887 93.754471 -179.768894 2.642469 166.183587 -13.573914 9.307324 -76.964127 159.161911 34.431105 127.333262 89.260564 56.897657 77.693242 -109.748835 45.495529 131.939144 93.864042 40.750343 -12.400795 28.278325 30.846548 -39.556985 -164.535326 -7.826859 165.334088 -16.767678 -47.608674 -12.104784 74.203698 43.593119 -71.155961 -6.463004 -66.06188 -41.186397 -4.558962 -13.318974 -1.65787 1.70123 -1.828231 14.614512 9.390977 0.367484 -18.604219 146.398113 -73.415962 -162.208039 -12.227807 25.947214 14.899134 31.177204 25.85779 31.66031 154.862444 -7.363321 -96.806051 14.379748 -5.47931 -14.301959 -22.665906 -66.532732 -14.264718 68.587775 39.09151 -74.80988 -34.890458 -54.849445 14.703378 -73.131357 49.439663 -83.758058 101.555033 43.596862 160.447928 20.708619 -37.187458 -130.223395 99.595799 -42.825791 -14.081307 -35.476581 18.275588 -80.155318 73.635143 17.706268 -152.196569 33.351384 -44.870646 -21.833046 70.439633 85.216111 -141.493866
-1.0156 67.7739 -4.0453 -1.020284 67.509142 -0.275633 -0.649502 6.220487 0.043475 5.144983 -15.723467 43.230384 25.390607 -15.451901 -71.477208 -9.009428 -36.48005 47.643183 -35.727512 -7.805314 23.902795 -9.953169 5.192124 -55.011914 -52.220193 -29.845477 -89.160672 -110.704477 -84.766324 -175.650671 11.202636 11.627381 -143.179537 172.119635 -13.083592 150.014062 -155.814802 67.3835 70.149553 -103.920998 -2.275903 -25.637434 7.820889 65.21718 -0.446448 -173.158879 45.350885 67.020003 -22.407601 -40.206676 0.364574 161.290722 60.902613 -25.421186 -128.786686 6.750627 167.928406 49.334506 16.105087 92.042579 -129.620904 25.123843 -158.808568 -114.23593 -74.927779 165.337094 101.756948 24.674638 -110.959616 -117.626005 56.31248 91.109016 -169.603112 62.832813 130.407981 -5.524308 39.123118 -2.593236 82.652575 32.354266 -18.995458 -15.916498 15.358008 -23.012235 -159.97031 -0.335044 -159.214726 139.797597 -61.188404 142.772586 105.864189 -42.501371 120.829609 41.395055 -65.746817 136.495043 14.202243 11.013612 37.142332 10.650018 9.736908 -86.469276 -162.216244 4.462817 -153.678922 -21.065888 -48.296598 -91.791085 -94.521966 25.247874 -64.016266 88.611666 46.087477 90.831462 44.054187 -7.614777 -94.207407 -150.100073 -34.35353 24.257467 -72.571277 1.430125 -25.593705 69.979766 -7.649375 102.145345 41.438981 -5.095399 -85.070269 79.890655 -20.829352 -19.456824
-0.8907999999999999 70.163 -4.9863 -3.199309 58.254692 -4.41918 12.952133 8.694045 -1.448634 -2.647209 -17.81904 65.527686 37.95143 -14.010577 34.443482 -51.980796 17.485814 -47.576607 -70.845563 6.40959 -9.002423 -108.345355 1.29839 1.798384 156.688945 41.252271 -124.422573 158.451207 -71.817896 -154.402591 90.29334 30.752959 72.868291 -143.338029 66.698342 129.89151 170.111235 0.662231 114.06878 -19.801169 35.35397 21.749781 -138.420577 -45.296555 172.485817 -90.638575 -63.787149 -164.443654 -167.137063 -44.334191 -178.153916 96.55958 13.792458 -104.074873 -18.380107 -3.201272 9.897279 -93.694008 -24.463339 -143.951638 -117.090614 4.40223 -150.696073 11.824611 37.344696 81.732212 -25.749397 -10.756508 -37.512113 -79.566053 -62.35954 -102.084448 -59.577288 9.223157 1.149847 -117.781438 80.852665 135.182269 -117.272148 -24.223483 -12.694364 162.164112 31.160746 -0.864511 -132.275874 -3.935604 -131.151009 -112.131909 -12.020892 -137.312733 170.079445 -65.731952 -164.230447 20.499449 36.137316 -17.927742 91.004337 -22.818288 89.052955 32.195562 -3.908246 167.59567 122.913924 -53.34772 44.701213 -42.109073 20.613623 69.932236 6.045744 25.620407 78.808921 -46.313634 12.659286 -0.0 48.978336 -15.923561 -88.923474 85.060865 -22.301221 -33.927948 -88.329268 12.046073 -10.861011 96.607702 -17.56344 -72.358664 -50.853291 -8.511753 0.748658 163.353555 16.441497 -88.54489
-0.8548 71.42009999999999 -6.619999999999999 -2.836985 58.812523 -1.286635 14.421155 -8.00903 180.0 2.850059 4.668082 -127.637137 22.963544 8.978402 104.29955 -27.12928 30.32517 -104.76063 -129.564684 -0.729041 -1.54798 -179.301407 0.359274 54.431539 -67.756012 -44.037651 -88.656195 -4.335987 -59.606669 -70.993475 -166.521805 -3.288483 -73.84418 0.759546 0.18859 0.21349 -7.896517 -12.467118 -8.787862 -69.151663 9.516136 19.107767 -179.625464 44.430293 144.236686 -15.630132 -50.844206 -0.042401 -170.043175 31.492858 141.811661 11.063721 -71.581448 27.557885 5.451173 -26.587973 4.019951 3.315973 -26.61437 -0.230673 -175.67373 -21.36791 -83.516839 44.460343 36.891923 -82.976546 -21.626589 -22.507307 -24.66726 -40.721723 -53.8925 -62.118101 170.835957 -46.222214 -117.306927 -152.721499 -17.966093 -133.64768 -86.09272 11.169609 -10.332967 132.803251 36.138946 -0.178901 50.306931 -30.207411 -21.695041 168.477384 43.695535 112.280723 -149.415919 -60.825372 -133.150824 17.409969 41.742255 -3.324957 106.75726 64.160649 -109.391786 -118.011785 -70.432879 105.304535 166.436276 -75.946072 80.974385 81.505749 43.592886 36.362321 -91.758266 5.483865 -45.033663 71.29744 17.930611 -84.050008 -71.508425 17.408745 -3.782309 -0.174304 11.941336 93.919862 -145.780731 47.055838 -42.894033 170.042759 26.648625 4.324158 5.681413 54.871362 -98.447527 89.544311 62.327396 -1.352815
-1.2428 72.0228 -8.6235 -1.404102 63.06879 0.774418 9.789594 -7.790146 51.847763 -0.799565 -4.838237 -14.681456 7.999153 3.500771 86.852432 -20.817709 12.485138 -88.079458 -156.613425 1.54112 7.436175 158.779724 -7.123473 36.760605 -163.672285 3.065686 -177.515721 -25.407268 22.390942 -26.056609 -172.6422 -18.629032 -71.961373 -5.361876 3.471193 -10.335372 177.526177 13.509922 87.356394 92.36732 -48.497402 109.853909 -119.020926 -86.275115 -128.833012 -65.701584 -56.38755 -128.879483 175.78131 -4.691273 139.901312 176.152402 74.44452 148.047145 5.263608 4.892107 -43.140814 179.457569 -31.382479 110.100501 162.397348 -19.68044 -127.010643 93.160345 54.302406 -144.928114 75.812227 53.51174 -82.82598 -103.950431 75.433172 105.296397 2.304924 -49.208193 68.570073 -171.647411 -14.430657 -145.514038 6.91724 -10.552554 7.065166 63.775671 32.833586 -68.692692 -26.760282 -44.548752 -22.695409 2.924886 -3.845538 111.423074 145.147537 31.822926 -100.844472 133.876996 8.600667 -73.810528 17.963921 21.35134 -21.055524 -66.561093 41.701539 -140.456316 -146.944899 -18.678874 -173.065921 -178.493561 38.684379 -131.402967 97.099561 43.879054 50.899125 -149.936998 40.607695 -111.354958 -81.95938 14.442672 -81.599329 -63.70601 24.0119 173.31028 47.204966 50.758133 44.796311 -88.518607 -12.684155 -89.674652 -42.409379 37.307001 99.696737 96.321444 -65.968187 2.814755
-2.0656999999999996 71.3402 -10.533199999999999 -1.159197 64.713946 -0.981713 12.032165 0.002729 90.004414 -9.327381 -2.436748 -66.75283 -2.123997 3.44723 59.228658 -19.446739 -5.246041 -56.127765 149.379893 3.29162 -11.983282 -171.399391 7.584249 82.789638 -23.963783 32.217231 15.635098 14.705822 15.533253 57.458059 -26.009713 -36.271309 92.176893 -2.370963 -11.326263 -15.90799 -100.419154 37.718584 25.094041 150.86815 -13.422234 26.186947 -142.898968 46.892755 83.49648 -161.154005 30.802161 58.974234 -100.759965 68.027565 69.15934 -133.817554 44.737231 63.985854 67.93373 52.342901 -63.996289 -99.102649 16.17654 51.627104 -1.323977 40.982273 27.060341 18.126382 -5.159718 34.700255 81.765816 68.566767 -86.287089 -91.265641 83.0517 87.994523 -111.236877 51.842708 86.676236 28.739516 37.587173 -20.091975 101.450448 59.273888 -56.486458 -43.772548 -15.5703 -56.111069 158.989236 -59.88364 -138.753663 -63.053074 -11.911152 62.518232 -9.039388 -21.432727 -19.563503 39.563439 -56.104823 108.795634 19.939474 -44.48979 13.793766 -64.486345 51.649863 34.393694 20.745934 27.622161 -28.200357 -50.038699 -0.629284 55.779884 -22.79055 17.431859 -62.592557 27.93939 -24.001226 -180.0 44.23746 -68.445252 -59.370852 -137.183289 24.376603 73.601251 -19.852788 8.920911 30.45597 -1.800963 -48.963926 -180.0 -12.395357 -60.349657 68.442975 27.488175 31.162184 72.685902
-3.3383999999999996 70.3051 -12.4134 1.485709 65.123615 0.709088 10.915727 5.417976 63.612517 -11.799145 -8.058743 -51.261322 -21.705782 3.611572 -45.783858 22.761075 -0.154155 57.891084 91.190104 2.725684 -2.782874 -9.511343 -5.045629 55.812189 -168.089911 -8.416189 140.678902 -32.371736 19.484778 -11.529903 85.87472 -34.584116 -116.911494 -144.075639 60.526897 105.405921 -68.686824 15.419916 0.785472 29.153666 2.654523 51.363227 154.313467 -41.843937 122.091644 -10.536035 -23.871165 -56.125488 -158.290051 46.124047 139.036062 167.468419 -58.055723 -166.374492 -153.346462 10.562617 -153.848977 175.330702 -8.186329 -119.97011 -61.097033 -59.63989 -90.372564 -121.228982 44.773241 -164.977687 152.882377 -11.726422 -179.190612 -27.731842 4.206299 -2.386042 151.537946 44.074032 162.649908 5.154426 -29.796531 -1.301235 171.690402 -16.694671 -113.656022 -123.484721 -65.962251 -120.847347 7.798757 65.07701 -3.692814 -87.445738 -68.626063 -133.736242 -10.001507 -0.007633 14.565206 133.2286 -1.626143 -132.982239 105.463283 -67.272426 92.790115 107.853858 -26.254846 133.475862 0.257246 41.272474 -3.018506 -16.230799 -3.122951 32.844153 -4.65008 -14.35409 -18.164118 -24.664784 -10.696219 -0.0 47.784515 68.21669 -114.465803 40.734053 39.471241 31.819274 31.406795 67.334983 65.271036 -102.468016 0.952486 0.840465 51.664489 28.140253 -126.091808 34.465677 11.553986 43.22401
